<svg viewBox="0 0 760 360" xmlns="http://www.w3.org/2000/svg" role="img" aria-label="Placement error budget: four independent error sources combine by root-sum-square, then pass the three-sigma capture-tolerance gate; the tolerance allocates a maximum error to each subsystem." font-family="'IBM Plex Mono',monospace">
<defs><marker id="ah" viewBox="0 0 10 10" refX="9" refY="5" markerWidth="7" markerHeight="7" orient="auto-start-reverse"><path d="M0,0 L10,5 L0,10 z" fill="var(--border-strong)"/></marker><marker id="ahA" viewBox="0 0 10 10" refX="9" refY="5" markerWidth="7" markerHeight="7" orient="auto-start-reverse"><path d="M0,0 L10,5 L0,10 z" fill="var(--info)"/></marker></defs>
<rect x="24" y="40" width="206" height="50" rx="7" fill="var(--surface)" stroke="var(--border)"/>
<text x="38" y="62" font-size="13" fill="var(--accent)" font-weight="700">&#963;<tspan dy="3" font-size="72%">loc</tspan><tspan dy="-3"> </tspan></text>
<text x="76" y="61" font-size="10" fill="var(--text-secondary)">perception / localization</text>
<text x="76" y="77" font-size="8.5" fill="var(--text-muted)">owned by M4 to M5</text>
<line x1="230" y1="65.0" x2="296" y2="182.0" stroke="var(--border-strong)" stroke-width="1.3" marker-end="url(#ah)"/>
<rect x="24" y="110" width="206" height="50" rx="7" fill="var(--surface)" stroke="var(--border)"/>
<text x="38" y="132" font-size="13" fill="var(--accent)" font-weight="700">&#963;<tspan dy="3" font-size="72%">he</tspan><tspan dy="-3"> </tspan></text>
<text x="76" y="131" font-size="10" fill="var(--text-secondary)">hand-eye calibration</text>
<line x1="230" y1="135.0" x2="296" y2="182.0" stroke="var(--border-strong)" stroke-width="1.3" marker-end="url(#ah)"/>
<rect x="24" y="180" width="206" height="50" rx="7" fill="var(--surface)" stroke="var(--border)"/>
<text x="38" y="202" font-size="13" fill="var(--accent)" font-weight="700">&#963;<tspan dy="3" font-size="72%">mech</tspan><tspan dy="-3"> </tspan></text>
<text x="76" y="201" font-size="10" fill="var(--text-secondary)">mechanism positioning</text>
<text x="76" y="217" font-size="8.5" fill="var(--text-muted)">owned by M8</text>
<line x1="230" y1="205.0" x2="296" y2="182.0" stroke="var(--border-strong)" stroke-width="1.3" marker-end="url(#ah)"/>
<rect x="24" y="250" width="206" height="50" rx="7" fill="var(--surface)" stroke="var(--border)"/>
<text x="38" y="272" font-size="13" fill="var(--accent)" font-weight="700">&#963;<tspan dy="3" font-size="72%">dyn</tspan><tspan dy="-3"> </tspan></text>
<text x="76" y="271" font-size="10" fill="var(--text-secondary)">dynamic / settling</text>
<line x1="230" y1="275.0" x2="296" y2="182.0" stroke="var(--border-strong)" stroke-width="1.3" marker-end="url(#ah)"/>
<rect x="300" y="150" width="140" height="64" rx="9" fill="var(--surface-2)" stroke="var(--border-strong)" stroke-width="1.5"/>
<text x="370.0" y="176" text-anchor="middle" font-size="12" fill="var(--text-primary)" font-weight="700">root-sum-square</text>
<text x="370.0" y="194" text-anchor="middle" font-size="9" fill="var(--text-muted)">independent, zero-mean</text>
<line x1="440" y1="182.0" x2="474" y2="182.0" stroke="var(--border-strong)" stroke-width="1.3" marker-end="url(#ah)"/>
<rect x="478" y="163" width="84" height="38" rx="7" fill="var(--surface)" stroke="var(--accent-dim)"/>
<text x="520.0" y="187" text-anchor="middle" font-size="13" fill="var(--accent-dim)" font-weight="700">&#963;<tspan dy="3" font-size="72%">total</tspan></text>
<line x1="562" y1="182.0" x2="592" y2="182.0" stroke="var(--border-strong)" stroke-width="1.3" marker-end="url(#ah)"/>
<rect x="596" y="150" width="150" height="64" rx="9" fill="var(--surface)" stroke="var(--accent)" stroke-width="1.6"/>
<text x="671.0" y="177" text-anchor="middle" font-size="13" fill="var(--accent)" font-weight="700">3&#183;&#963;<tspan dy="3" font-size="70%">total</tspan><tspan dy="-3"> &#8804; c</tspan></text>
<text x="671.0" y="196" text-anchor="middle" font-size="9" fill="var(--text-muted)">c &#8776; &#177;30 mm (capture)</text>
<line x1="671.0" y1="214" x2="671.0" y2="330" stroke="var(--info)" stroke-width="1.2" stroke-dasharray="5 3"/>
<line x1="671.0" y1="330" x2="114" y2="330" stroke="var(--info)" stroke-width="1.2" stroke-dasharray="5 3"/>
<line x1="114" y1="330" x2="114" y2="304" stroke="var(--info)" stroke-width="1.2" stroke-dasharray="5 3" marker-end="url(#ahA)"/>
<text x="661.0" y="324" text-anchor="end" font-size="9" fill="var(--info-text)">allocation: c sets each subsystem's max error budget</text>
</svg>